<svg version="1.1" id="Layer_1" xmlns="http://www.w3.org/2000/svg" xmlns:xlink="http://www.w3.org/1999/xlink" x="0px" y="0px"
	 width="100%" viewBox="0 0 184 162" enable-background="new 0 0 184 162" xml:space="preserve">
<path fill="#3F5168" opacity="1.000000" stroke="none" 
	d="
M91.000000,163.000000 
	C60.666668,163.000000 30.833338,163.000000 1.000004,163.000000 
	C1.000003,109.000008 1.000003,55.000011 1.000001,1.000011 
	C62.333324,1.000008 123.666649,1.000008 184.999969,1.000004 
	C184.999985,54.999989 184.999985,108.999977 185.000000,162.999985 
	C153.833328,163.000000 122.666664,163.000000 91.000000,163.000000 
M56.180130,113.009735 
	C51.933456,112.571869 53.254646,115.727806 52.995670,117.902184 
	C52.599895,121.225060 54.792969,121.106087 57.005852,121.847626 
	C57.842300,122.893860 58.508366,124.562744 59.552898,124.848572 
	C61.375401,125.347298 63.452824,124.810150 65.383873,125.039711 
	C68.696472,125.433502 69.337982,123.712639 69.929306,121.005920 
	C75.072098,121.007645 80.215401,121.048050 85.357277,120.980316 
	C86.460464,120.965782 88.132042,120.932785 88.561913,120.271408 
	C90.683609,117.007050 92.475891,113.528595 94.947990,109.120750 
	C97.021828,111.449715 99.450630,114.252739 101.966408,116.975388 
	C103.577904,118.719429 105.037041,120.888687 107.049576,121.927513 
	C114.925995,125.993141 122.971390,129.663910 131.987701,124.860313 
	C133.615402,123.993126 135.484589,123.170563 137.276184,123.091049 
	C144.648666,122.763840 145.029984,122.477798 144.997070,114.012978 
	C144.998047,104.373390 145.205429,94.727211 144.898285,85.097450 
	C144.775665,81.253204 143.679321,77.403717 142.715561,73.636093 
	C142.131226,71.351768 141.317551,68.959282 139.970901,67.068298 
	C136.047226,61.558578 131.848770,56.241337 127.675674,50.913139 
	C119.686653,40.712765 108.851257,39.915501 97.297630,41.369827 
	C103.023766,48.074516 108.444481,54.648022 114.117310,60.996231 
	C119.159630,66.638870 118.859871,74.051277 120.788872,80.662651 
	C121.901428,84.475792 120.901680,88.905228 120.083031,93.010033 
	C117.302124,94.385612 114.525566,95.770050 111.739059,97.134186 
	C109.095497,98.428337 106.411270,100.822495 103.798386,100.751968 
	C98.216827,100.601341 93.531799,102.315239 88.408905,104.851151 
	C87.908348,104.257866 87.407791,103.664581 87.369797,102.443123 
	C87.916367,99.350632 88.462936,96.258141 89.599670,92.824066 
	C90.088547,91.578239 90.577423,90.332413 91.516396,89.005234 
	C91.516396,89.005234 91.972496,88.988754 92.596893,88.686539 
	C94.399536,86.351250 98.109543,85.098801 96.977043,80.135757 
	C96.984375,77.690735 96.819290,75.229866 97.042183,72.804657 
	C97.328003,69.694710 95.884033,68.688095 93.023163,68.051918 
	C92.953636,59.717068 89.932755,56.956791 80.995308,57.015808 
	C80.995308,57.015808 80.985207,57.053005 80.989769,56.196945 
	C79.927299,55.133018 78.977242,53.333874 77.780090,53.150833 
	C74.852158,52.703171 71.798874,53.163612 68.816902,52.957195 
	C65.617317,52.735725 64.581490,54.124001 64.770645,57.611675 
	C63.864399,58.093716 62.958153,58.575756 61.286240,59.023968 
	C58.499508,61.053761 55.712776,63.083553 52.081104,65.030304 
	C51.055187,66.049500 49.228493,67.006691 49.143944,68.098763 
	C48.803673,72.493805 49.219578,76.944855 48.930046,81.347191 
	C48.711788,84.665863 50.293079,85.305328 53.002151,84.997856 
	C53.002151,84.997856 52.936260,85.001106 52.983494,85.886337 
	C53.790058,88.576347 50.606731,93.498451 57.002129,92.997871 
	C57.002129,92.997871 56.936264,93.001251 56.984245,93.789497 
	C57.812199,94.869560 58.562675,96.022888 59.492748,97.006371 
	C60.230019,97.785988 61.187405,98.357445 61.813606,99.632126 
	C60.827793,100.778870 59.841980,101.925606 58.242359,103.500145 
	C57.838905,106.677208 57.435448,109.854271 56.180130,113.009735 
z"/>
<path fill="#FFFFFF" opacity="1.000000" stroke="none" 
	d="
M120.852676,93.057274 
	C120.901680,88.905228 121.901428,84.475792 120.788872,80.662651 
	C118.859871,74.051277 119.159630,66.638870 114.117310,60.996231 
	C108.444481,54.648022 103.023766,48.074516 97.297630,41.369827 
	C108.851257,39.915501 119.686653,40.712765 127.675674,50.913139 
	C131.848770,56.241337 136.047226,61.558578 139.970901,67.068298 
	C141.317551,68.959282 142.131226,71.351768 142.715561,73.636093 
	C143.679321,77.403717 144.775665,81.253204 144.898285,85.097450 
	C145.205429,94.727211 144.998047,104.373390 144.601257,114.497826 
	C141.996063,113.466072 139.575851,112.179543 137.619659,110.386696 
	C133.038345,106.187943 129.134293,101.047348 124.023117,97.722084 
	C121.742630,96.238426 120.888748,95.353004 120.852676,93.057274 
z"/>
<path fill="#030304" opacity="1.000000" stroke="none" 
	d="
M120.467850,93.033653 
	C120.888748,95.353004 121.742630,96.238426 124.023117,97.722084 
	C129.134293,101.047348 133.038345,106.187943 137.619659,110.386696 
	C139.575851,112.179543 141.996063,113.466072 144.591537,114.962822 
	C145.029984,122.477798 144.648666,122.763840 137.276184,123.091049 
	C135.484589,123.170563 133.615402,123.993126 131.987701,124.860313 
	C122.971390,129.663910 114.925995,125.993141 107.049576,121.927513 
	C105.037041,120.888687 103.577904,118.719429 101.966408,116.975388 
	C99.450630,114.252739 97.021828,111.449715 94.947990,109.120750 
	C92.475891,113.528595 90.683609,117.007050 88.561913,120.271408 
	C88.132042,120.932785 86.460464,120.965782 85.357277,120.980316 
	C80.215401,121.048050 75.072098,121.007645 69.472763,121.002838 
	C69.016220,120.999756 69.023758,121.027657 69.009575,120.626694 
	C68.971619,119.157623 68.947838,118.089516 69.331253,117.009918 
	C73.031525,117.398232 73.124535,115.232964 73.457993,112.945969 
	C76.254509,113.020485 78.610664,113.056488 81.152496,113.438911 
	C83.825203,113.426178 86.312225,113.067024 88.967262,112.683601 
	C88.967262,109.974121 88.967262,107.509804 88.967262,105.045479 
	C93.531799,102.315239 98.216827,100.601341 103.798386,100.751968 
	C106.411270,100.822495 109.095497,98.428337 111.739059,97.134186 
	C114.525566,95.770050 117.302124,94.385612 120.467850,93.033653 
z"/>
<path fill="#38381C" opacity="1.000000" stroke="none" 
	d="
M52.926041,65.113342 
	C55.712776,63.083553 58.499508,61.053761 61.655289,59.342838 
	C62.333298,60.116093 62.642258,60.570477 62.972092,61.418076 
	C63.692837,63.500607 64.392708,65.189919 65.062866,67.321747 
	C65.109673,69.355927 65.186188,70.947578 65.283585,72.973541 
	C68.148705,72.973541 70.590981,72.973541 73.016632,72.986771 
	C73.000000,73.000000 73.026459,72.966743 73.017731,73.427841 
	C72.980125,77.544525 72.951248,81.200104 72.653091,84.988113 
	C71.898163,85.737556 71.412521,86.354568 70.712219,86.968994 
	C70.497559,86.966400 70.077309,86.878876 69.907318,86.557640 
	C68.173241,85.877357 66.609146,85.518311 64.620728,85.098000 
	C63.133953,85.841148 61.450417,86.464066 61.150238,87.491249 
	C60.663067,89.158310 61.082447,91.090302 60.701962,92.938873 
	C59.168617,92.978615 58.052441,92.989937 56.936264,93.001251 
	C56.936264,93.001251 57.002129,92.997871 57.000778,92.582642 
	C56.205788,89.460709 59.400154,84.492882 52.936260,85.001106 
	C52.936260,85.001106 53.002151,84.997856 53.000801,84.557007 
	C52.974979,77.781891 52.950512,71.447617 52.926041,65.113342 
z"/>
<path fill="#000000" opacity="1.000000" stroke="none" 
	d="
M56.960255,93.395370 
	C58.052441,92.989937 59.168617,92.978615 61.082397,92.977188 
	C62.896809,93.031189 63.913624,93.075294 65.038429,93.393135 
	C65.752449,94.138458 66.358475,94.610046 67.003494,95.501892 
	C70.329002,96.322983 73.615532,96.723816 76.937134,97.496552 
	C76.957794,98.863945 76.943375,99.859421 76.483810,100.920578 
	C73.785278,100.986244 71.531891,100.986244 68.480278,100.986244 
	C69.077667,104.715973 69.579254,107.847641 69.651192,110.986015 
	C67.789230,110.988190 66.356934,110.983665 64.958115,110.523422 
	C64.993614,106.984467 65.172134,103.883362 64.863235,100.831604 
	C64.793259,100.140244 63.030579,99.620216 62.047050,99.021332 
	C61.187405,98.357445 60.230019,97.785988 59.492748,97.006371 
	C58.562675,96.022888 57.812199,94.869560 56.960255,93.395370 
z"/>
<path fill="#E8C29D" opacity="1.000000" stroke="none" 
	d="
M70.926880,86.971588 
	C71.412521,86.354568 71.898163,85.737556 73.048111,85.040100 
	C75.467163,84.295387 77.221916,83.631111 79.254189,83.074409 
	C80.051895,83.770454 80.572075,84.358917 81.065376,85.370453 
	C82.070778,86.860367 82.950966,88.563957 84.168594,88.854797 
	C86.361198,89.378510 88.755981,89.055740 91.066299,89.086578 
	C90.577423,90.332413 90.088547,91.578239 88.919487,92.930534 
	C87.199059,93.053696 86.158813,93.070389 84.667694,93.059326 
	C78.131821,94.641144 75.611542,88.433037 70.926880,86.971588 
z"/>
<path fill="#000000" opacity="1.000000" stroke="none" 
	d="
M96.922905,81.066460 
	C98.109543,85.098801 94.399536,86.351250 92.222260,88.517616 
	C90.844955,87.218529 89.842293,86.088364 88.914017,84.523758 
	C89.269234,82.040390 88.940620,80.695580 86.302925,80.952545 
	C83.898178,81.186806 81.454269,81.018997 79.014038,80.670753 
	C78.961388,79.838020 78.922318,79.362938 79.077324,78.539017 
	C83.340187,75.964966 87.235565,76.363701 91.132202,79.309860 
	C93.160286,80.125771 95.041595,80.596115 96.922905,81.066460 
z"/>
<path fill="#000000" opacity="1.000000" stroke="none" 
	d="
M52.503571,65.071823 
	C52.950512,71.447617 52.974979,77.781891 52.999115,84.589951 
	C50.293079,85.305328 48.711788,84.665863 48.930046,81.347191 
	C49.219578,76.944855 48.803673,72.493805 49.143944,68.098763 
	C49.228493,67.006691 51.055187,66.049500 52.503571,65.071823 
z"/>
<path fill="#E8C29D" opacity="1.000000" stroke="none" 
	d="
M88.688080,104.948318 
	C88.967262,107.509804 88.967262,109.974121 88.967262,112.683601 
	C86.312225,113.067024 83.825203,113.426178 81.162575,112.994347 
	C81.345840,109.093971 81.704720,105.984596 82.465797,102.923508 
	C84.214409,103.004967 85.560822,103.038132 86.907234,103.071297 
	C87.407791,103.664581 87.908348,104.257866 88.688080,104.948318 
z"/>
<path fill="#704341" opacity="1.000000" stroke="none" 
	d="
M87.138519,102.757210 
	C85.560822,103.038132 84.214409,103.004967 82.291428,102.599335 
	C80.119553,101.769547 78.524261,101.312225 76.928963,100.854904 
	C76.943375,99.859421 76.957794,98.863945 77.384071,97.452942 
	C80.487503,96.185356 85.376160,99.405937 85.118568,93.087082 
	C86.158813,93.070389 87.199059,93.053696 88.624405,93.101326 
	C88.462936,96.258141 87.916367,99.350632 87.138519,102.757210 
z"/>
<path fill="#704341" opacity="1.000000" stroke="none" 
	d="
M80.954140,57.024055 
	C89.932755,56.956791 92.953636,59.717068 93.009026,68.527756 
	C92.994888,69.003593 92.923706,69.076202 92.524796,69.045044 
	C91.087532,68.389740 89.416832,67.980324 89.119446,67.104561 
	C87.777390,63.152397 85.417709,60.846699 81.063141,60.501205 
	C81.001602,59.085552 80.977875,58.054802 80.954140,57.024055 
z"/>
<path fill="#CF9B76" opacity="1.000000" stroke="none" 
	d="
M80.974724,57.019932 
	C80.977875,58.054802 81.001602,59.085552 80.589722,60.539951 
	C74.419807,60.984020 68.685516,61.004440 62.951218,61.024860 
	C62.642258,60.570477 62.333298,60.116093 62.038120,59.359753 
	C62.958153,58.575756 63.864399,58.093716 65.387436,57.316528 
	C70.997887,57.031921 75.991547,57.042461 80.985207,57.053005 
	C80.985207,57.053005 80.995308,57.015808 80.974724,57.019932 
z"/>
<path fill="#704341" opacity="1.000000" stroke="none" 
	d="
M80.987488,56.624977 
	C75.991547,57.042461 70.997887,57.031921 65.546341,57.051090 
	C64.581490,54.124001 65.617317,52.735725 68.816902,52.957195 
	C71.798874,53.163612 74.852158,52.703171 77.780090,53.150833 
	C78.977242,53.333874 79.927299,55.133018 80.987488,56.624977 
z"/>
<path fill="#704341" opacity="1.000000" stroke="none" 
	d="
M96.949974,80.601105 
	C95.041595,80.596115 93.160286,80.125771 91.277725,78.954819 
	C91.825562,75.194878 92.374634,72.135536 92.923706,69.076202 
	C92.923706,69.076202 92.994888,69.003593 93.030144,68.966423 
	C95.884033,68.688095 97.328003,69.694710 97.042183,72.804657 
	C96.819290,75.229866 96.984375,77.690735 96.949974,80.601105 
z"/>
<path fill="#E8C29D" opacity="1.000000" stroke="none" 
	d="
M61.930328,99.326729 
	C63.030579,99.620216 64.793259,100.140244 64.863235,100.831604 
	C65.172134,103.883362 64.993614,106.984467 64.601562,110.532013 
	C63.500961,110.957603 62.790417,110.918884 61.911858,110.545013 
	C60.781288,107.830681 59.818726,105.451515 58.856163,103.072350 
	C59.841980,101.925606 60.827793,100.778870 61.930328,99.326729 
z"/>
<path fill="#000000" opacity="1.000000" stroke="none" 
	d="
M69.003830,120.992752 
	C69.337982,123.712639 68.696472,125.433502 65.383873,125.039711 
	C63.452824,124.810150 61.375401,125.347298 59.552898,124.848572 
	C58.508366,124.562744 57.842300,122.893860 56.998207,121.428520 
	C56.990566,121.009415 56.970474,121.029419 57.433514,121.016769 
	C61.605621,121.011963 65.314690,121.019806 69.023758,121.027657 
	C69.023758,121.027657 69.016220,120.999756 69.003830,120.992752 
z"/>
<path fill="#C1C8D7" opacity="1.000000" stroke="none" 
	d="
M88.839638,84.958191 
	C89.842293,86.088364 90.844955,87.218529 91.910057,88.668724 
	C91.972496,88.988754 91.516396,89.005234 91.291351,89.045906 
	C88.755981,89.055740 86.361198,89.378510 84.168594,88.854797 
	C82.950966,88.563957 82.070778,86.860367 81.492523,85.389275 
	C84.244240,84.976082 86.541939,84.967133 88.839638,84.958191 
z"/>
<path fill="#000000" opacity="1.000000" stroke="none" 
	d="
M58.549263,103.286247 
	C59.818726,105.451515 60.781288,107.830681 61.833664,110.926926 
	C60.276955,112.090637 58.630424,112.537270 56.995697,112.995636 
	C57.007500,113.007370 57.031994,113.031334 57.031994,113.031334 
	C57.435448,109.854271 57.838905,106.677208 58.549263,103.286247 
z"/>
<path fill="#000000" opacity="1.000000" stroke="none" 
	d="
M52.959877,85.443726 
	C59.400154,84.492882 56.205788,89.460709 56.999107,92.615570 
	C50.606731,93.498451 53.790058,88.576347 52.959877,85.443726 
z"/>
<path fill="#000000" opacity="1.000000" stroke="none" 
	d="
M57.000656,120.999466 
	C54.792969,121.106087 52.599895,121.225060 52.995670,117.902184 
	C53.254646,115.727806 51.933456,112.571869 56.606064,113.020538 
	C57.031994,113.031334 57.007500,113.007370 57.001171,113.408966 
	C57.026337,114.911858 57.057835,116.013153 57.051105,117.504524 
	C56.998745,118.939537 56.984608,119.984482 56.970474,121.029419 
	C56.970474,121.029419 56.990566,121.009415 57.000656,120.999466 
z"/>
<path fill="#F3D9BC" opacity="1.000000" stroke="none" 
	d="
M76.483810,100.920578 
	C78.524261,101.312225 80.119553,101.769547 81.889221,102.551041 
	C81.704720,105.984596 81.345840,109.093971 80.976883,112.647919 
	C78.610664,113.056488 76.254509,113.020485 73.351448,112.643860 
	C71.896645,111.861923 70.988747,111.420616 70.080849,110.979309 
	C69.579254,107.847641 69.077667,104.715973 68.480278,100.986244 
	C71.531891,100.986244 73.785278,100.986244 76.483810,100.920578 
z"/>
<path fill="#2C2C34" opacity="1.000000" stroke="none" 
	d="
M69.651192,110.986015 
	C70.988747,111.420616 71.896645,111.861923 72.911072,112.605339 
	C73.124535,115.232964 73.031525,117.398232 68.876694,117.001289 
	C64.373077,117.040909 60.731205,117.077675 57.089333,117.114449 
	C57.057835,116.013153 57.026337,114.911858 56.989372,113.397232 
	C58.630424,112.537270 60.276955,112.090637 62.001675,111.262093 
	C62.790417,110.918884 63.500961,110.957603 64.568069,110.987732 
	C66.356934,110.983665 67.789230,110.988190 69.651192,110.986015 
z"/>
<path fill="#CF9B76" opacity="1.000000" stroke="none" 
	d="
M57.051105,117.504524 
	C60.731205,117.077675 64.373077,117.040909 68.469505,117.012772 
	C68.947838,118.089516 68.971619,119.157623 69.009575,120.626694 
	C65.314690,121.019806 61.605621,121.011963 57.433514,121.016769 
	C56.984608,119.984482 56.998745,118.939537 57.051105,117.504524 
z"/>
<path fill="#F3D9BC" opacity="1.000000" stroke="none" 
	d="
M92.524796,69.045044 
	C92.374634,72.135536 91.825562,75.194878 91.130959,78.609253 
	C87.235565,76.363701 83.340187,75.964966 78.731155,78.405479 
	C77.587311,76.854469 76.983704,75.088165 76.310257,73.117485 
	C75.286552,73.070488 74.156509,73.018616 73.026459,72.966743 
	C73.026459,72.966743 73.000000,73.000000 73.003204,72.578232 
	C72.555252,71.128181 72.374611,69.569534 71.600395,69.174637 
	C69.569267,68.138657 67.279358,67.610023 65.092575,66.879227 
	C64.392708,65.189919 63.692837,63.500607 62.972092,61.418076 
	C68.685516,61.004440 74.419807,60.984020 80.627533,60.924858 
	C85.417709,60.846699 87.777390,63.152397 89.119446,67.104561 
	C89.416832,67.980324 91.087532,68.389740 92.524796,69.045044 
z"/>
<path fill="#CF9B76" opacity="1.000000" stroke="none" 
	d="
M84.667694,93.059326 
	C85.376160,99.405937 80.487503,96.185356 77.348991,97.081039 
	C73.615532,96.723816 70.329002,96.322983 67.205475,95.193604 
	C68.271416,91.936333 69.174362,89.407608 70.077316,86.878876 
	C70.077309,86.878876 70.497559,86.966400 70.712219,86.968994 
	C75.611542,88.433037 78.131821,94.641144 84.667694,93.059326 
z"/>
<path fill="#777046" opacity="1.000000" stroke="none" 
	d="
M73.017731,73.427841 
	C74.156509,73.018616 75.286552,73.070488 76.310257,73.117485 
	C76.983704,75.088165 77.587311,76.854469 78.537079,78.754311 
	C78.922318,79.362938 78.961388,79.838020 79.001801,80.994019 
	C78.994316,82.105553 78.985489,82.536194 78.976669,82.966827 
	C77.221916,83.631111 75.467163,84.295387 73.317398,84.907677 
	C72.951248,81.200104 72.980125,77.544525 73.017731,73.427841 
z"/>
<path fill="#E8C29D" opacity="1.000000" stroke="none" 
	d="
M69.907318,86.557640 
	C69.174362,89.407608 68.271416,91.936333 67.166481,94.773346 
	C66.358475,94.610046 65.752449,94.138458 65.059608,92.948486 
	C64.996880,89.873161 65.020973,87.516220 65.045059,85.159271 
	C66.609146,85.518311 68.173241,85.877357 69.907318,86.557640 
z"/>
<path fill="#777046" opacity="1.000000" stroke="none" 
	d="
M65.062866,67.321747 
	C67.279358,67.610023 69.569267,68.138657 71.600395,69.174637 
	C72.374611,69.569534 72.555252,71.128181 73.019836,72.565002 
	C70.590981,72.973541 68.148705,72.973541 65.283585,72.973541 
	C65.186188,70.947578 65.109673,69.355927 65.062866,67.321747 
z"/>
<path fill="#CF9B76" opacity="1.000000" stroke="none" 
	d="
M64.620728,85.098000 
	C65.020973,87.516220 64.996880,89.873161 64.951614,92.674759 
	C63.913624,93.075294 62.896809,93.031189 61.499565,92.948769 
	C61.082447,91.090302 60.663067,89.158310 61.150238,87.491249 
	C61.450417,86.464066 63.133953,85.841148 64.620728,85.098000 
z"/>
<path fill="#FFFFFF" opacity="1.000000" stroke="none" 
	d="
M79.254196,83.074409 
	C78.985489,82.536194 78.994316,82.105553 79.015381,81.351654 
	C81.454269,81.018997 83.898178,81.186806 86.302925,80.952545 
	C88.940620,80.695580 89.269234,82.040390 88.914017,84.523758 
	C86.541939,84.967133 84.244240,84.976082 81.519394,84.966209 
	C80.572075,84.358917 80.051895,83.770454 79.254196,83.074409 
z"/>
</svg>